<?xml version="1.0" standalone="no"?>
<!DOCTYPE svg PUBLIC "-//W3C//DTD SVG 20010904//EN"
 "http://www.w3.org/TR/2001/REC-SVG-20010904/DTD/svg10.dtd">
<svg version="1.0" xmlns="http://www.w3.org/2000/svg"
 width="336.000000pt" height="336.000000pt" viewBox="0 0 336.000000 336.000000"
 preserveAspectRatio="xMidYMid meet">
<metadata>
Created by potrace 1.14, written by Peter Selinger 2001-2017
</metadata>
<g transform="translate(0.000000,336.000000) scale(0.100000,-0.100000)"
fill="#000000" stroke="none">
<path d="M1505 3353 c-25 -3 -118 -20 -225 -40 -63 -11 -245 -80 -343 -128
-405 -201 -708 -548 -851 -976 -36 -109 -60 -216 -75 -334 -10 -73 -7 -377 4
-430 3 -16 13 -66 21 -110 98 -494 446 -939 909 -1165 89 -43 278 -113 338
-124 12 -2 63 -12 112 -22 124 -25 433 -25 560 -1 263 49 453 125 660 262 87
58 222 172 296 251 55 59 179 223 207 273 74 136 94 176 125 256 36 90 81 248
91 321 3 21 10 68 15 104 5 36 8 137 6 225 -4 169 -6 185 -30 305 -3 14 -7 37
-10 52 -11 61 -80 250 -125 343 -198 407 -557 720 -987 861 -57 18 -115 36
-130 39 -167 32 -217 37 -368 39 -93 2 -183 1 -200 -1z"/>
</g>
</svg>
